<?xml version="1.0" encoding="UTF-8" standalone="no"?>
<!-- Created with Inkscape (http://www.inkscape.org/) -->

<svg
   xmlns:dc="http://purl.org/dc/elements/1.1/"
   xmlns:cc="http://creativecommons.org/ns#"
   xmlns:rdf="http://www.w3.org/1999/02/22-rdf-syntax-ns#"
   xmlns:svg="http://www.w3.org/2000/svg"
   xmlns="http://www.w3.org/2000/svg"
   xmlns:xlink="http://www.w3.org/1999/xlink"
   xmlns:sodipodi="http://sodipodi.sourceforge.net/DTD/sodipodi-0.dtd"
   xmlns:inkscape="http://www.inkscape.org/namespaces/inkscape"
   width="120"
   height="120"
   id="svg3841"
   version="1.1"
   inkscape:version="0.48.3.1 r9886"
   sodipodi:docname="Documento nuevo 3">
  <defs
     id="defs3843">
    <linearGradient
       id="linearGradient4453">
      <stop
         style="stop-color:#f3ad26;stop-opacity:1;"
         offset="0"
         id="stop4455" />
      <stop
         style="stop-color:#ffffff;stop-opacity:1;"
         offset="1"
         id="stop4457" />
    </linearGradient>
    <linearGradient
       inkscape:collect="always"
       xlink:href="#linearGradient4453"
       id="linearGradient4459"
       x1="381.42856"
       y1="148.07646"
       x2="377.85715"
       y2="393.79074"
       gradientUnits="userSpaceOnUse"
       gradientTransform="translate(1.4285714,41.428571)" />
    <linearGradient
       inkscape:collect="always"
       xlink:href="#linearGradient4453"
       id="linearGradient4682"
       gradientUnits="userSpaceOnUse"
       gradientTransform="translate(1.4285714,41.428571)"
       x1="381.42856"
       y1="148.07646"
       x2="377.85715"
       y2="393.79074" />
  </defs>
  <sodipodi:namedview
     id="base"
     pagecolor="#ffffff"
     bordercolor="#666666"
     borderopacity="1.0"
     inkscape:pageopacity="0.0"
     inkscape:pageshadow="2"
     inkscape:zoom="1.4"
     inkscape:cx="111.27787"
     inkscape:cy="65.026079"
     inkscape:document-units="px"
     inkscape:current-layer="layer1"
     showgrid="false"
     inkscape:window-width="1204"
     inkscape:window-height="687"
     inkscape:window-x="1"
     inkscape:window-y="46"
     inkscape:window-maximized="0" />
  <metadata
     id="metadata3846">
    <rdf:RDF>
      <cc:Work
         rdf:about="">
        <dc:format>image/svg+xml</dc:format>
        <dc:type
           rdf:resource="http://purl.org/dc/dcmitype/StillImage" />
        <dc:title></dc:title>
      </cc:Work>
    </rdf:RDF>
  </metadata>
  <g
     inkscape:label="Capa 1"
     inkscape:groupmode="layer"
     id="layer1"
     transform="translate(0,-932.36218)">
    <g
       id="g4633"
       transform="matrix(0.20487449,0,0,0.20487449,-13.889422,925.25246)">
      <path
         inkscape:connector-curvature="0"
         id="path4467"
         d="m 169.28572,395.21933 c 0,0 -7.14286,47.08054 12.14285,64.83222 19.28572,17.75167 47.14286,44.7651 137.85715,50.16778 90.71428,5.40268 146.42857,-11.57719 146.42857,-11.57719 0,0 48.57143,-16.97986 67.85714,-37.81879 19.28572,-20.83892 17.14286,-54.02684 17.14286,-54.02684 l -41.42857,23.15437 c 0,0 -55,24.69798 -63.57143,25.46979 -8.57143,0.77181 -77.85714,14.66443 -137.85714,6.94632 -60,-7.71813 -93.57143,-24.698 -110.71429,-40.13424 C 180,406.79651 169.28572,395.21933 169.28572,395.21933 z"
         style="fill:#c8763e;fill-opacity:1;stroke:none" />
      <path
         inkscape:connector-curvature="0"
         id="path4469"
         d="m 164.28572,400.21932 c 2.85714,0.71429 -12.85715,2.85714 -13.57143,6.42857 -0.71429,3.57143 -2.14286,15 -1.42857,19.28572 0.71428,4.28571 6.42857,16.42857 6.42857,16.42857 L 165,460.93361 c 0,0 12.85715,1.42857 13.57143,-5.71429 0.71429,-7.14286 7.14286,-13.57143 7.14286,-16.42857 0,-2.85714 3.57143,-8.57143 3.57143,-8.57143 0,0 8.57143,13.57143 12.85714,17.85714 4.28571,4.28572 24.28571,5 24.28571,5 l -3.57142,10.71429 37.85714,10 15,-3.57143 28.57143,2.85714 22.14285,20 L 345,492.36218 367.14286,470.21932 c 0,0 25.71429,-3.57143 28.57143,-3.57143 2.85714,0 22.14286,-2.14286 22.14286,-2.14286 l 0,13.57143 15,5.71429 L 435,471.64789 c 0,0 1.42857,-10 8.57143,-11.42857 C 450.71429,458.79075 485,440.93361 485,440.93361 l 28.57143,8.57142 16.42857,-4.28571 15.71429,-18.57143 15,-8.57143 2.14286,-17.85714 c 0,0 21.42857,-2.14286 17.14285,-4.28571 -4.28571,-2.14286 -21.42857,-12.85715 -21.42857,-12.85715 0,0 -23.57143,12.85715 -27.85714,14.28572 -4.28572,1.42857 -17.85714,11.42857 -34.28572,14.28571 -16.42857,2.85714 -84.28571,10.71429 -88.57142,10.71429 -4.28572,0 -89.28572,10.71428 -89.28572,10.71428 l -99.28571,-13.57143 z"
         style="fill:#74831e;fill-opacity:1;stroke:none" />
      <path
         inkscape:connector-curvature="0"
         id="path4463"
         d="m 153.57143,338.79075 c 0,0 -26.42857,27.85714 -2.14286,60 24.28571,32.14286 133.57143,48.57143 205.71429,44.28572 72.14285,-4.28572 111.42857,-9.28572 172.14285,-36.42858 C 590,379.50504 557.14286,345.93361 557.14286,345.93361 L 520,352.36218 c 0,0 -47.85714,21.42857 -55,21.42857 -7.14286,0 -82.14286,1.42857 -88.57143,3.57143 -6.42857,2.14286 -65.71429,1.42857 -73.57143,0 -7.85714,-1.42857 -57.14286,-9.28571 -63.57143,-10 -6.42857,-0.71429 -35.71428,-14.28571 -38.57143,-15 -2.85714,-0.71429 -47.14285,-13.57143 -47.14285,-13.57143 z"
         style="fill:#9c491f;fill-opacity:1;stroke:none" />
      <path
         sodipodi:nodetypes="sscscssccscscs"
         inkscape:connector-curvature="0"
         id="path4465"
         d="m 155,328.07646 c -1.88751,31.79989 36.42857,38.57143 70.71428,64.28572 34.28572,25.71428 52.85715,68.57143 52.85715,68.57143 0,0 44.28571,-57.85715 73.57142,-60 29.28572,-2.14286 124.28572,-27.14286 124.28572,-27.14286 0,0 52.85714,-10.71429 59.28571,-13.57143 6.42857,-2.85714 9.28572,-12.14286 20,-5.71428 C 566.42857,360.93361 580,368.07646 580,368.07646 l 5.71428,-2.85714 c 0,0 -0.71428,-51.42857 -16.42857,-61.42857 -15.71428,-10 -95,-14.28571 -95,-14.28571 0,0 -147.85714,0 -151.42857,0 -3.57143,0 -100.71429,-9.28572 -100.71429,-9.28572 0,0 -65.51436,20.42115 -67.14285,47.85714 z"
         style="fill:#b96107;fill-opacity:1;stroke:none" />
      <path
         sodipodi:nodetypes="scsscs"
         inkscape:connector-curvature="0"
         id="path3860"
         d="m 344.88044,145.25751 c 211.12188,-15.15228 228.29447,96.97465 228.29447,96.97465 0,0 9.09137,50.50762 -25.25381,81.82235 -34.34519,31.31473 -68.69038,40.4061 -174.75639,47.47717 -106.06602,7.07107 -231.03958,-31.02937 -237.56442,-98.52051 0,0 -1.84174,-112.60137 209.28015,-127.75366 z"
         style="fill:url(#linearGradient4682);fill-opacity:1;stroke:none" />
      <path
         transform="matrix(0.8448918,-0.53493723,0.53493723,0.8448918,-26.129394,141.71956)"
         d="m 294.99999,248.79076 c 0,2.36693 -2.71827,4.28571 -6.07143,4.28571 -3.35316,0 -6.07143,-1.91878 -6.07143,-4.28571 0,-2.36694 2.71827,-4.28572 6.07143,-4.28572 3.35316,0 6.07143,1.91878 6.07143,4.28572 z"
         sodipodi:ry="4.2857141"
         sodipodi:rx="6.0714288"
         sodipodi:cy="248.79076"
         sodipodi:cx="288.92856"
         id="path3862"
         style="fill:#fbe4b7;fill-opacity:1;stroke:none"
         sodipodi:type="arc" />
      <path
         transform="matrix(0.79120106,-0.50094332,0.50094332,0.79120106,-15.730648,174.13603)"
         d="m 294.99999,248.79076 c 0,2.36693 -2.71827,4.28571 -6.07143,4.28571 -3.35316,0 -6.07143,-1.91878 -6.07143,-4.28571 0,-2.36694 2.71827,-4.28572 6.07143,-4.28572 3.35316,0 6.07143,1.91878 6.07143,4.28572 z"
         sodipodi:ry="4.2857141"
         sodipodi:rx="6.0714288"
         sodipodi:cy="248.79076"
         sodipodi:cx="288.92856"
         id="path3862-0"
         style="fill:#fbe4b7;fill-opacity:1;stroke:none"
         sodipodi:type="arc" />
      <path
         transform="matrix(0.78081695,0.5169799,-0.5169799,0.78081695,255.16236,-116.9824)"
         d="m 294.99999,248.79076 c 0,2.36693 -2.71827,4.28571 -6.07143,4.28571 -3.35316,0 -6.07143,-1.91878 -6.07143,-4.28571 0,-2.36694 2.71827,-4.28572 6.07143,-4.28572 3.35316,0 6.07143,1.91878 6.07143,4.28572 z"
         sodipodi:ry="4.2857141"
         sodipodi:rx="6.0714288"
         sodipodi:cy="248.79076"
         sodipodi:cx="288.92856"
         id="path3862-0-9"
         style="fill:#fbe4b7;fill-opacity:1;stroke:none"
         sodipodi:type="arc" />
      <path
         transform="matrix(0.78081695,0.5169799,-0.5169799,0.78081695,242.30522,-138.41097)"
         d="m 294.99999,248.79076 c 0,2.36693 -2.71827,4.28571 -6.07143,4.28571 -3.35316,0 -6.07143,-1.91878 -6.07143,-4.28571 0,-2.36694 2.71827,-4.28572 6.07143,-4.28572 3.35316,0 6.07143,1.91878 6.07143,4.28572 z"
         sodipodi:ry="4.2857141"
         sodipodi:rx="6.0714288"
         sodipodi:cy="248.79076"
         sodipodi:cx="288.92856"
         id="path3862-0-9-7"
         style="fill:#fbe4b7;fill-opacity:1;stroke:none"
         sodipodi:type="arc" />
      <path
         transform="matrix(0.86478469,0.50214284,-0.50214284,0.86478469,178.68277,-189.732)"
         d="m 294.99999,248.79076 c 0,2.36693 -2.71827,4.28571 -6.07143,4.28571 -3.35316,0 -6.07143,-1.91878 -6.07143,-4.28571 0,-2.36694 2.71827,-4.28572 6.07143,-4.28572 3.35316,0 6.07143,1.91878 6.07143,4.28572 z"
         sodipodi:ry="4.2857141"
         sodipodi:rx="6.0714288"
         sodipodi:cy="248.79076"
         sodipodi:cx="288.92856"
         id="path3862-2"
         style="fill:#fbe4b7;fill-opacity:1;stroke:none"
         sodipodi:type="arc" />
      <path
         transform="matrix(0.80982981,0.47023293,-0.47023293,0.80982981,154.73842,-165.53223)"
         d="m 294.99999,248.79076 c 0,2.36693 -2.71827,4.28571 -6.07143,4.28571 -3.35316,0 -6.07143,-1.91878 -6.07143,-4.28571 0,-2.36694 2.71827,-4.28572 6.07143,-4.28572 3.35316,0 6.07143,1.91878 6.07143,4.28572 z"
         sodipodi:ry="4.2857141"
         sodipodi:rx="6.0714288"
         sodipodi:cy="248.79076"
         sodipodi:cx="288.92856"
         id="path3862-0-6"
         style="fill:#fbe4b7;fill-opacity:1;stroke:none"
         sodipodi:type="arc" />
      <path
         transform="matrix(-0.09772533,0.9313394,-0.9313394,-0.09772533,605.22507,-78.365754)"
         d="m 294.99999,248.79076 c 0,2.36693 -2.71827,4.28571 -6.07143,4.28571 -3.35316,0 -6.07143,-1.91878 -6.07143,-4.28571 0,-2.36694 2.71827,-4.28572 6.07143,-4.28572 3.35316,0 6.07143,1.91878 6.07143,4.28572 z"
         sodipodi:ry="4.2857141"
         sodipodi:rx="6.0714288"
         sodipodi:cy="248.79076"
         sodipodi:cx="288.92856"
         id="path3862-0-9-78"
         style="fill:#fbe4b7;fill-opacity:1;stroke:none"
         sodipodi:type="arc" />
      <path
         transform="matrix(-0.09772533,0.9313394,-0.9313394,-0.09772533,551.14594,-81.097574)"
         d="m 294.99999,248.79076 c 0,2.36693 -2.71827,4.28571 -6.07143,4.28571 -3.35316,0 -6.07143,-1.91878 -6.07143,-4.28571 0,-2.36694 2.71827,-4.28572 6.07143,-4.28572 3.35316,0 6.07143,1.91878 6.07143,4.28572 z"
         sodipodi:ry="4.2857141"
         sodipodi:rx="6.0714288"
         sodipodi:cy="248.79076"
         sodipodi:cx="288.92856"
         id="path3862-0-9-7-5"
         style="fill:#fbe4b7;fill-opacity:1;stroke:none"
         sodipodi:type="arc" />
      <path
         transform="matrix(0.8448918,-0.53493723,0.53493723,0.8448918,28.106507,158.74472)"
         d="m 294.99999,248.79076 c 0,2.36693 -2.71827,4.28571 -6.07143,4.28571 -3.35316,0 -6.07143,-1.91878 -6.07143,-4.28571 0,-2.36694 2.71827,-4.28572 6.07143,-4.28572 3.35316,0 6.07143,1.91878 6.07143,4.28572 z"
         sodipodi:ry="4.2857141"
         sodipodi:rx="6.0714288"
         sodipodi:cy="248.79076"
         sodipodi:cx="288.92856"
         id="path3862-3"
         style="fill:#fbe4b7;fill-opacity:1;stroke:none"
         sodipodi:type="arc" />
      <path
         transform="matrix(0.79120106,-0.50094332,0.50094332,0.79120106,38.505247,191.16119)"
         d="m 294.99999,248.79076 c 0,2.36693 -2.71827,4.28571 -6.07143,4.28571 -3.35316,0 -6.07143,-1.91878 -6.07143,-4.28571 0,-2.36694 2.71827,-4.28572 6.07143,-4.28572 3.35316,0 6.07143,1.91878 6.07143,4.28572 z"
         sodipodi:ry="4.2857141"
         sodipodi:rx="6.0714288"
         sodipodi:cy="248.79076"
         sodipodi:cx="288.92856"
         id="path3862-0-95"
         style="fill:#fbe4b7;fill-opacity:1;stroke:none"
         sodipodi:type="arc" />
      <path
         transform="matrix(0.78081695,0.5169799,-0.5169799,0.78081695,309.39825,-99.957241)"
         d="m 294.99999,248.79076 c 0,2.36693 -2.71827,4.28571 -6.07143,4.28571 -3.35316,0 -6.07143,-1.91878 -6.07143,-4.28571 0,-2.36694 2.71827,-4.28572 6.07143,-4.28572 3.35316,0 6.07143,1.91878 6.07143,4.28572 z"
         sodipodi:ry="4.2857141"
         sodipodi:rx="6.0714288"
         sodipodi:cy="248.79076"
         sodipodi:cx="288.92856"
         id="path3862-0-9-0"
         style="fill:#fbe4b7;fill-opacity:1;stroke:none"
         sodipodi:type="arc" />
      <path
         transform="matrix(0.78081695,0.5169799,-0.5169799,0.78081695,296.54111,-121.38581)"
         d="m 294.99999,248.79076 c 0,2.36693 -2.71827,4.28571 -6.07143,4.28571 -3.35316,0 -6.07143,-1.91878 -6.07143,-4.28571 0,-2.36694 2.71827,-4.28572 6.07143,-4.28572 3.35316,0 6.07143,1.91878 6.07143,4.28572 z"
         sodipodi:ry="4.2857141"
         sodipodi:rx="6.0714288"
         sodipodi:cy="248.79076"
         sodipodi:cx="288.92856"
         id="path3862-0-9-7-4"
         style="fill:#fbe4b7;fill-opacity:1;stroke:none"
         sodipodi:type="arc" />
      <path
         transform="matrix(0.86478469,0.50214284,-0.50214284,0.86478469,300.06152,-191.27827)"
         d="m 294.99999,248.79076 c 0,2.36693 -2.71827,4.28571 -6.07143,4.28571 -3.35316,0 -6.07143,-1.91878 -6.07143,-4.28571 0,-2.36694 2.71827,-4.28572 6.07143,-4.28572 3.35316,0 6.07143,1.91878 6.07143,4.28572 z"
         sodipodi:ry="4.2857141"
         sodipodi:rx="6.0714288"
         sodipodi:cy="248.79076"
         sodipodi:cx="288.92856"
         id="path3862-2-8"
         style="fill:#fbe4b7;fill-opacity:1;stroke:none"
         sodipodi:type="arc" />
      <path
         transform="matrix(0.80982981,0.47023293,-0.47023293,0.80982981,276.11717,-167.0785)"
         d="m 294.99999,248.79076 c 0,2.36693 -2.71827,4.28571 -6.07143,4.28571 -3.35316,0 -6.07143,-1.91878 -6.07143,-4.28571 0,-2.36694 2.71827,-4.28572 6.07143,-4.28572 3.35316,0 6.07143,1.91878 6.07143,4.28572 z"
         sodipodi:ry="4.2857141"
         sodipodi:rx="6.0714288"
         sodipodi:cy="248.79076"
         sodipodi:cx="288.92856"
         id="path3862-0-6-9"
         style="fill:#fbe4b7;fill-opacity:1;stroke:none"
         sodipodi:type="arc" />
      <path
         transform="matrix(-0.09772533,0.9313394,-0.9313394,-0.09772533,659.46096,-61.340591)"
         d="m 294.99999,248.79076 c 0,2.36693 -2.71827,4.28571 -6.07143,4.28571 -3.35316,0 -6.07143,-1.91878 -6.07143,-4.28571 0,-2.36694 2.71827,-4.28572 6.07143,-4.28572 3.35316,0 6.07143,1.91878 6.07143,4.28572 z"
         sodipodi:ry="4.2857141"
         sodipodi:rx="6.0714288"
         sodipodi:cy="248.79076"
         sodipodi:cx="288.92856"
         id="path3862-0-9-78-1"
         style="fill:#fbe4b7;fill-opacity:1;stroke:none"
         sodipodi:type="arc" />
      <path
         transform="matrix(-0.09772533,0.9313394,-0.9313394,-0.09772533,672.52469,-82.643841)"
         d="m 294.99999,248.79076 c 0,2.36693 -2.71827,4.28571 -6.07143,4.28571 -3.35316,0 -6.07143,-1.91878 -6.07143,-4.28571 0,-2.36694 2.71827,-4.28572 6.07143,-4.28572 3.35316,0 6.07143,1.91878 6.07143,4.28572 z"
         sodipodi:ry="4.2857141"
         sodipodi:rx="6.0714288"
         sodipodi:cy="248.79076"
         sodipodi:cx="288.92856"
         id="path3862-0-9-7-5-1"
         style="fill:#fbe4b7;fill-opacity:1;stroke:none"
         sodipodi:type="arc" />
      <path
         transform="matrix(0.98423432,-0.17686946,0.17686946,0.98423432,192.99287,44.918798)"
         d="m 294.99999,248.79076 c 0,2.36693 -2.71827,4.28571 -6.07143,4.28571 -3.35316,0 -6.07143,-1.91878 -6.07143,-4.28571 0,-2.36694 2.71827,-4.28572 6.07143,-4.28572 3.35316,0 6.07143,1.91878 6.07143,4.28572 z"
         sodipodi:ry="4.2857141"
         sodipodi:rx="6.0714288"
         sodipodi:cy="248.79076"
         sodipodi:cx="288.92856"
         id="path3862-5"
         style="fill:#fbe4b7;fill-opacity:1;stroke:none"
         sodipodi:type="arc" />
      <path
         transform="matrix(0.92168871,-0.16562985,0.16562985,0.92168871,190.40082,78.863497)"
         d="m 294.99999,248.79076 c 0,2.36693 -2.71827,4.28571 -6.07143,4.28571 -3.35316,0 -6.07143,-1.91878 -6.07143,-4.28571 0,-2.36694 2.71827,-4.28572 6.07143,-4.28572 3.35316,0 6.07143,1.91878 6.07143,4.28572 z"
         sodipodi:ry="4.2857141"
         sodipodi:rx="6.0714288"
         sodipodi:cy="248.79076"
         sodipodi:cx="288.92856"
         id="path3862-0-91"
         style="fill:#fbe4b7;fill-opacity:1;stroke:none"
         sodipodi:type="arc" />
      <path
         transform="matrix(0.5282448,0.77324043,-0.77324043,0.5282448,551.06947,-88.621104)"
         d="m 294.99999,248.79076 c 0,2.36693 -2.71827,4.28571 -6.07143,4.28571 -3.35316,0 -6.07143,-1.91878 -6.07143,-4.28571 0,-2.36694 2.71827,-4.28572 6.07143,-4.28572 3.35316,0 6.07143,1.91878 6.07143,4.28572 z"
         sodipodi:ry="4.2857141"
         sodipodi:rx="6.0714288"
         sodipodi:cy="248.79076"
         sodipodi:cx="288.92856"
         id="path3862-0-9-75"
         style="fill:#fbe4b7;fill-opacity:1;stroke:none"
         sodipodi:type="arc" />
      <path
         transform="matrix(0.5282448,0.77324043,-0.77324043,0.5282448,547.2414,-113.31595)"
         d="m 294.99999,248.79076 c 0,2.36693 -2.71827,4.28571 -6.07143,4.28571 -3.35316,0 -6.07143,-1.91878 -6.07143,-4.28571 0,-2.36694 2.71827,-4.28572 6.07143,-4.28572 3.35316,0 6.07143,1.91878 6.07143,4.28572 z"
         sodipodi:ry="4.2857141"
         sodipodi:rx="6.0714288"
         sodipodi:cy="248.79076"
         sodipodi:cx="288.92856"
         id="path3862-0-9-7-3"
         style="fill:#fbe4b7;fill-opacity:1;stroke:none"
         sodipodi:type="arc" />
      <path
         transform="matrix(0.61160909,0.79116011,-0.79116011,0.61160909,507.66672,-184.83873)"
         d="m 294.99999,248.79076 c 0,2.36693 -2.71827,4.28571 -6.07143,4.28571 -3.35316,0 -6.07143,-1.91878 -6.07143,-4.28571 0,-2.36694 2.71827,-4.28572 6.07143,-4.28572 3.35316,0 6.07143,1.91878 6.07143,4.28572 z"
         sodipodi:ry="4.2857141"
         sodipodi:rx="6.0714288"
         sodipodi:cy="248.79076"
         sodipodi:cx="288.92856"
         id="path3862-2-82"
         style="fill:#fbe4b7;fill-opacity:1;stroke:none"
         sodipodi:type="arc" />
      <path
         transform="matrix(0.57274288,0.74088388,-0.74088388,0.57274288,476.36485,-171.45391)"
         d="m 294.99999,248.79076 c 0,2.36693 -2.71827,4.28571 -6.07143,4.28571 -3.35316,0 -6.07143,-1.91878 -6.07143,-4.28571 0,-2.36694 2.71827,-4.28572 6.07143,-4.28572 3.35316,0 6.07143,1.91878 6.07143,4.28572 z"
         sodipodi:ry="4.2857141"
         sodipodi:rx="6.0714288"
         sodipodi:cy="248.79076"
         sodipodi:cx="288.92856"
         id="path3862-0-6-3"
         style="fill:#fbe4b7;fill-opacity:1;stroke:none"
         sodipodi:type="arc" />
      <path
         transform="matrix(-0.4416901,0.82574401,-0.82574401,-0.4416901,860.7314,79.142524)"
         d="m 294.99999,248.79076 c 0,2.36693 -2.71827,4.28571 -6.07143,4.28571 -3.35316,0 -6.07143,-1.91878 -6.07143,-4.28571 0,-2.36694 2.71827,-4.28572 6.07143,-4.28572 3.35316,0 6.07143,1.91878 6.07143,4.28572 z"
         sodipodi:ry="4.2857141"
         sodipodi:rx="6.0714288"
         sodipodi:cy="248.79076"
         sodipodi:cx="288.92856"
         id="path3862-0-9-78-3"
         style="fill:#fbe4b7;fill-opacity:1;stroke:none"
         sodipodi:type="arc" />
      <path
         transform="matrix(-0.4416901,0.82574401,-0.82574401,-0.4416901,811.67417,56.220841)"
         d="m 294.99999,248.79076 c 0,2.36693 -2.71827,4.28571 -6.07143,4.28571 -3.35316,0 -6.07143,-1.91878 -6.07143,-4.28571 0,-2.36694 2.71827,-4.28572 6.07143,-4.28572 3.35316,0 6.07143,1.91878 6.07143,4.28572 z"
         sodipodi:ry="4.2857141"
         sodipodi:rx="6.0714288"
         sodipodi:cy="248.79076"
         sodipodi:cx="288.92856"
         id="path3862-0-9-7-5-9"
         style="fill:#fbe4b7;fill-opacity:1;stroke:none"
         sodipodi:type="arc" />
      <path
         transform="matrix(0.98423432,-0.17686946,0.17686946,0.98423432,-54.622842,52.56645)"
         d="m 294.99999,248.79076 c 0,2.36693 -2.71827,4.28571 -6.07143,4.28571 -3.35316,0 -6.07143,-1.91878 -6.07143,-4.28571 0,-2.36694 2.71827,-4.28572 6.07143,-4.28572 3.35316,0 6.07143,1.91878 6.07143,4.28572 z"
         sodipodi:ry="4.2857141"
         sodipodi:rx="6.0714288"
         sodipodi:cy="248.79076"
         sodipodi:cx="288.92856"
         id="path3862-3-7"
         style="fill:#fbe4b7;fill-opacity:1;stroke:none"
         sodipodi:type="arc" />
      <path
         transform="matrix(0.92168871,-0.16562985,0.16562985,0.92168871,221.35654,115.08258)"
         d="m 294.99999,248.79076 c 0,2.36693 -2.71827,4.28571 -6.07143,4.28571 -3.35316,0 -6.07143,-1.91878 -6.07143,-4.28571 0,-2.36694 2.71827,-4.28572 6.07143,-4.28572 3.35316,0 6.07143,1.91878 6.07143,4.28572 z"
         sodipodi:ry="4.2857141"
         sodipodi:rx="6.0714288"
         sodipodi:cy="248.79076"
         sodipodi:cx="288.92856"
         id="path3862-0-95-5"
         style="fill:#fbe4b7;fill-opacity:1;stroke:none"
         sodipodi:type="arc" />
      <path
         transform="matrix(0.5282448,0.77324043,-0.77324043,0.5282448,303.45375,-80.973456)"
         d="m 294.99999,248.79076 c 0,2.36693 -2.71827,4.28571 -6.07143,4.28571 -3.35316,0 -6.07143,-1.91878 -6.07143,-4.28571 0,-2.36694 2.71827,-4.28572 6.07143,-4.28572 3.35316,0 6.07143,1.91878 6.07143,4.28572 z"
         sodipodi:ry="4.2857141"
         sodipodi:rx="6.0714288"
         sodipodi:cy="248.79076"
         sodipodi:cx="288.92856"
         id="path3862-0-9-0-4"
         style="fill:#fbe4b7;fill-opacity:1;stroke:none"
         sodipodi:type="arc" />
      <path
         transform="matrix(0.5282448,0.77324043,-0.77324043,0.5282448,588.19711,-78.525447)"
         d="m 294.99999,248.79076 c 0,2.36693 -2.71827,4.28571 -6.07143,4.28571 -3.35316,0 -6.07143,-1.91878 -6.07143,-4.28571 0,-2.36694 2.71827,-4.28572 6.07143,-4.28572 3.35316,0 6.07143,1.91878 6.07143,4.28572 z"
         sodipodi:ry="4.2857141"
         sodipodi:rx="6.0714288"
         sodipodi:cy="248.79076"
         sodipodi:cx="288.92856"
         id="path3862-0-9-7-4-9"
         style="fill:#fbe4b7;fill-opacity:1;stroke:none"
         sodipodi:type="arc" />
      <path
         transform="matrix(0.61160909,0.79116011,-0.79116011,0.61160909,329.24045,-169.07425)"
         d="m 294.99999,248.79076 c 0,2.36693 -2.71827,4.28571 -6.07143,4.28571 -3.35316,0 -6.07143,-1.91878 -6.07143,-4.28571 0,-2.36694 2.71827,-4.28572 6.07143,-4.28572 3.35316,0 6.07143,1.91878 6.07143,4.28572 z"
         sodipodi:ry="4.2857141"
         sodipodi:rx="6.0714288"
         sodipodi:cy="248.79076"
         sodipodi:cx="288.92856"
         id="path3862-2-8-6"
         style="fill:#fbe4b7;fill-opacity:1;stroke:none"
         sodipodi:type="arc" />
      <path
         transform="matrix(0.57274288,0.74088388,-0.74088388,0.57274288,297.93858,-155.68943)"
         d="m 294.99999,248.79076 c 0,2.36693 -2.71827,4.28571 -6.07143,4.28571 -3.35316,0 -6.07143,-1.91878 -6.07143,-4.28571 0,-2.36694 2.71827,-4.28572 6.07143,-4.28572 3.35316,0 6.07143,1.91878 6.07143,4.28572 z"
         sodipodi:ry="4.2857141"
         sodipodi:rx="6.0714288"
         sodipodi:cy="248.79076"
         sodipodi:cx="288.92856"
         id="path3862-0-6-9-3"
         style="fill:#fbe4b7;fill-opacity:1;stroke:none"
         sodipodi:type="arc" />
      <path
         transform="matrix(-0.4416901,0.82574401,-0.82574401,-0.4416901,613.11568,86.790191)"
         d="m 294.99999,248.79076 c 0,2.36693 -2.71827,4.28571 -6.07143,4.28571 -3.35316,0 -6.07143,-1.91878 -6.07143,-4.28571 0,-2.36694 2.71827,-4.28572 6.07143,-4.28572 3.35316,0 6.07143,1.91878 6.07143,4.28572 z"
         sodipodi:ry="4.2857141"
         sodipodi:rx="6.0714288"
         sodipodi:cy="248.79076"
         sodipodi:cx="288.92856"
         id="path3862-0-9-78-1-1"
         style="fill:#fbe4b7;fill-opacity:1;stroke:none"
         sodipodi:type="arc" />
      <path
         transform="matrix(-0.4416901,0.82574401,-0.82574401,-0.4416901,633.24789,71.985331)"
         d="m 294.99999,248.79076 c 0,2.36693 -2.71827,4.28571 -6.07143,4.28571 -3.35316,0 -6.07143,-1.91878 -6.07143,-4.28571 0,-2.36694 2.71827,-4.28572 6.07143,-4.28572 3.35316,0 6.07143,1.91878 6.07143,4.28572 z"
         sodipodi:ry="4.2857141"
         sodipodi:rx="6.0714288"
         sodipodi:cy="248.79076"
         sodipodi:cx="288.92856"
         id="path3862-0-9-7-5-1-3"
         style="fill:#fbe4b7;fill-opacity:1;stroke:none"
         sodipodi:type="arc" />
      <path
         transform="matrix(0.86478469,0.50214284,-0.50214284,0.86478469,99.829573,-151.08187)"
         d="m 294.99999,248.79076 c 0,2.36693 -2.71827,4.28571 -6.07143,4.28571 -3.35316,0 -6.07143,-1.91878 -6.07143,-4.28571 0,-2.36694 2.71827,-4.28572 6.07143,-4.28572 3.35316,0 6.07143,1.91878 6.07143,4.28572 z"
         sodipodi:ry="4.2857141"
         sodipodi:rx="6.0714288"
         sodipodi:cy="248.79076"
         sodipodi:cx="288.92856"
         id="path3862-2-0"
         style="fill:#fbe4b7;fill-opacity:1;stroke:none"
         sodipodi:type="arc" />
      <path
         transform="matrix(0.80982981,0.47023293,-0.47023293,0.80982981,75.885223,-126.8821)"
         d="m 294.99999,248.79076 c 0,2.36693 -2.71827,4.28571 -6.07143,4.28571 -3.35316,0 -6.07143,-1.91878 -6.07143,-4.28571 0,-2.36694 2.71827,-4.28572 6.07143,-4.28572 3.35316,0 6.07143,1.91878 6.07143,4.28572 z"
         sodipodi:ry="4.2857141"
         sodipodi:rx="6.0714288"
         sodipodi:cy="248.79076"
         sodipodi:cx="288.92856"
         id="path3862-0-6-1"
         style="fill:#fbe4b7;fill-opacity:1;stroke:none"
         sodipodi:type="arc" />
      <path
         transform="matrix(-0.09772533,0.9313394,-0.9313394,-0.09772533,472.29274,-42.447441)"
         d="m 294.99999,248.79076 c 0,2.36693 -2.71827,4.28571 -6.07143,4.28571 -3.35316,0 -6.07143,-1.91878 -6.07143,-4.28571 0,-2.36694 2.71827,-4.28572 6.07143,-4.28572 3.35316,0 6.07143,1.91878 6.07143,4.28572 z"
         sodipodi:ry="4.2857141"
         sodipodi:rx="6.0714288"
         sodipodi:cy="248.79076"
         sodipodi:cx="288.92856"
         id="path3862-0-9-7-5-8"
         style="fill:#fbe4b7;fill-opacity:1;stroke:none"
         sodipodi:type="arc" />
      <path
         transform="matrix(0.61160909,0.79116011,-0.79116011,0.61160909,250.38725,-130.42412)"
         d="m 294.99999,248.79076 c 0,2.36693 -2.71827,4.28571 -6.07143,4.28571 -3.35316,0 -6.07143,-1.91878 -6.07143,-4.28571 0,-2.36694 2.71827,-4.28572 6.07143,-4.28572 3.35316,0 6.07143,1.91878 6.07143,4.28572 z"
         sodipodi:ry="4.2857141"
         sodipodi:rx="6.0714288"
         sodipodi:cy="248.79076"
         sodipodi:cx="288.92856"
         id="path3862-2-8-6-5"
         style="fill:#fbe4b7;fill-opacity:1;stroke:none"
         sodipodi:type="arc" />
      <path
         transform="matrix(0.57274288,0.74088388,-0.74088388,0.57274288,219.08538,-117.0393)"
         d="m 294.99999,248.79076 c 0,2.36693 -2.71827,4.28571 -6.07143,4.28571 -3.35316,0 -6.07143,-1.91878 -6.07143,-4.28571 0,-2.36694 2.71827,-4.28572 6.07143,-4.28572 3.35316,0 6.07143,1.91878 6.07143,4.28572 z"
         sodipodi:ry="4.2857141"
         sodipodi:rx="6.0714288"
         sodipodi:cy="248.79076"
         sodipodi:cx="288.92856"
         id="path3862-0-6-9-3-1"
         style="fill:#fbe4b7;fill-opacity:1;stroke:none"
         sodipodi:type="arc" />
      <path
         transform="matrix(-0.4416901,0.82574401,-0.82574401,-0.4416901,534.26248,125.44032)"
         d="m 294.99999,248.79076 c 0,2.36693 -2.71827,4.28571 -6.07143,4.28571 -3.35316,0 -6.07143,-1.91878 -6.07143,-4.28571 0,-2.36694 2.71827,-4.28572 6.07143,-4.28572 3.35316,0 6.07143,1.91878 6.07143,4.28572 z"
         sodipodi:ry="4.2857141"
         sodipodi:rx="6.0714288"
         sodipodi:cy="248.79076"
         sodipodi:cx="288.92856"
         id="path3862-0-9-78-1-1-5"
         style="fill:#fbe4b7;fill-opacity:1;stroke:none"
         sodipodi:type="arc" />
      <path
         transform="matrix(-0.4416901,0.82574401,-0.82574401,-0.4416901,554.39469,110.63546)"
         d="m 294.99999,248.79076 c 0,2.36693 -2.71827,4.28571 -6.07143,4.28571 -3.35316,0 -6.07143,-1.91878 -6.07143,-4.28571 0,-2.36694 2.71827,-4.28572 6.07143,-4.28572 3.35316,0 6.07143,1.91878 6.07143,4.28572 z"
         sodipodi:ry="4.2857141"
         sodipodi:rx="6.0714288"
         sodipodi:cy="248.79076"
         sodipodi:cx="288.92856"
         id="path3862-0-9-7-5-1-3-5"
         style="fill:#fbe4b7;fill-opacity:1;stroke:none"
         sodipodi:type="arc" />
      <path
         transform="matrix(0.61160909,0.79116011,-0.79116011,0.61160909,490.68808,-152.94602)"
         d="m 294.99999,248.79076 c 0,2.36693 -2.71827,4.28571 -6.07143,4.28571 -3.35316,0 -6.07143,-1.91878 -6.07143,-4.28571 0,-2.36694 2.71827,-4.28572 6.07143,-4.28572 3.35316,0 6.07143,1.91878 6.07143,4.28572 z"
         sodipodi:ry="4.2857141"
         sodipodi:rx="6.0714288"
         sodipodi:cy="248.79076"
         sodipodi:cx="288.92856"
         id="path3862-2-82-5"
         style="fill:#fbe4b7;fill-opacity:1;stroke:none"
         sodipodi:type="arc" />
      <path
         transform="matrix(0.57274288,0.74088388,-0.74088388,0.57274288,459.38621,-139.5612)"
         d="m 294.99999,248.79076 c 0,2.36693 -2.71827,4.28571 -6.07143,4.28571 -3.35316,0 -6.07143,-1.91878 -6.07143,-4.28571 0,-2.36694 2.71827,-4.28572 6.07143,-4.28572 3.35316,0 6.07143,1.91878 6.07143,4.28572 z"
         sodipodi:ry="4.2857141"
         sodipodi:rx="6.0714288"
         sodipodi:cy="248.79076"
         sodipodi:cx="288.92856"
         id="path3862-0-6-3-6"
         style="fill:#fbe4b7;fill-opacity:1;stroke:none"
         sodipodi:type="arc" />
      <path
         transform="matrix(-0.4416901,0.82574401,-0.82574401,-0.4416901,794.69553,88.113553)"
         d="m 294.99999,248.79076 c 0,2.36693 -2.71827,4.28571 -6.07143,4.28571 -3.35316,0 -6.07143,-1.91878 -6.07143,-4.28571 0,-2.36694 2.71827,-4.28572 6.07143,-4.28572 3.35316,0 6.07143,1.91878 6.07143,4.28572 z"
         sodipodi:ry="4.2857141"
         sodipodi:rx="6.0714288"
         sodipodi:cy="248.79076"
         sodipodi:cx="288.92856"
         id="path3862-0-9-7-5-9-7"
         style="fill:#fbe4b7;fill-opacity:1;stroke:none"
         sodipodi:type="arc" />
    </g>
  </g>
</svg>
