<?xml version="1.0" encoding="UTF-8" standalone="no"?>
<!-- Created with Inkscape (http://www.inkscape.org/) -->

<svg
   xmlns:dc="http://purl.org/dc/elements/1.1/"
   xmlns:cc="http://creativecommons.org/ns#"
   xmlns:rdf="http://www.w3.org/1999/02/22-rdf-syntax-ns#"
   xmlns:svg="http://www.w3.org/2000/svg"
   xmlns="http://www.w3.org/2000/svg"
   xmlns:xlink="http://www.w3.org/1999/xlink"
   xmlns:sodipodi="http://sodipodi.sourceforge.net/DTD/sodipodi-0.dtd"
   xmlns:inkscape="http://www.inkscape.org/namespaces/inkscape"
   width="257.64417"
   height="329.72791"
   id="svg2985"
   version="1.1"
   inkscape:version="0.48.3.1 r9886"
   sodipodi:docname="osoGordo_origina_solo_cuerpol.svg"
   inkscape:export-filename="/home/diego/Mis producciones/juego/pics/osoGordo_original.png"
   inkscape:export-xdpi="90"
   inkscape:export-ydpi="90">
  <defs
     id="defs2987">
    <linearGradient
       id="linearGradient4566">
      <stop
         style="stop-color:#931be4;stop-opacity:1;"
         offset="0"
         id="stop4568" />
      <stop
         style="stop-color:#000000;stop-opacity:1;"
         offset="1"
         id="stop4570" />
    </linearGradient>
    <filter
       id="filter4347"
       inkscape:label="Drop Shadow"
       color-interpolation-filters="sRGB">
      <feFlood
         id="feFlood4349"
         flood-opacity="0.465"
         flood-color="rgb(0,0,0)"
         result="flood" />
      <feComposite
         id="feComposite4351"
         in2="SourceGraphic"
         in="flood"
         operator="in"
         result="composite1" />
      <feGaussianBlur
         id="feGaussianBlur4353"
         stdDeviation="1"
         result="blur" />
      <feOffset
         id="feOffset4355"
         dx="0.7"
         dy="1.2"
         result="offset" />
      <feComposite
         id="feComposite4357"
         in2="offset"
         in="SourceGraphic"
         operator="over"
         result="composite2" />
    </filter>
    <filter
       color-interpolation-filters="sRGB"
       id="filter4347-9"
       inkscape:label="Drop Shadow">
      <feFlood
         id="feFlood4349-7"
         flood-opacity="0.465"
         flood-color="rgb(0,0,0)"
         result="flood" />
      <feComposite
         id="feComposite4351-4"
         in2="SourceGraphic"
         in="flood"
         operator="in"
         result="composite1" />
      <feGaussianBlur
         id="feGaussianBlur4353-1"
         stdDeviation="1"
         result="blur" />
      <feOffset
         id="feOffset4355-5"
         dx="0.7"
         dy="1.2"
         result="offset" />
      <feComposite
         id="feComposite4357-5"
         in2="offset"
         in="SourceGraphic"
         operator="over"
         result="composite2" />
    </filter>
    <filter
       color-interpolation-filters="sRGB"
       id="filter4347-1"
       inkscape:label="Drop Shadow">
      <feFlood
         id="feFlood4349-9"
         flood-opacity="0.465"
         flood-color="rgb(0,0,0)"
         result="flood" />
      <feComposite
         id="feComposite4351-2"
         in2="SourceGraphic"
         in="flood"
         operator="in"
         result="composite1" />
      <feGaussianBlur
         id="feGaussianBlur4353-2"
         stdDeviation="1"
         result="blur" />
      <feOffset
         id="feOffset4355-7"
         dx="0.7"
         dy="1.2"
         result="offset" />
      <feComposite
         id="feComposite4357-6"
         in2="offset"
         in="SourceGraphic"
         operator="over"
         result="composite2" />
    </filter>
    <linearGradient
       inkscape:collect="always"
       xlink:href="#linearGradient4566"
       id="linearGradient4572"
       x1="529.362"
       y1="715.19702"
       x2="526.82916"
       y2="360.60043"
       gradientUnits="userSpaceOnUse"
       gradientTransform="matrix(1.0606636,0,0,1.0606636,-18.565081,49.620767)" />
    <linearGradient
       inkscape:collect="always"
       xlink:href="#linearGradient4566"
       id="linearGradient4582"
       x1="0"
       y1="351.7355"
       x2="182.36395"
       y2="351.7355"
       gradientUnits="userSpaceOnUse"
       gradientTransform="matrix(1.0606636,0,0,1.0606636,-18.565081,49.620767)" />
    <linearGradient
       inkscape:collect="always"
       xlink:href="#linearGradient4566-6"
       id="linearGradient4582-0"
       x1="0"
       y1="351.7355"
       x2="182.36395"
       y2="351.7355"
       gradientUnits="userSpaceOnUse" />
    <linearGradient
       id="linearGradient4566-6">
      <stop
         style="stop-color:#931be4;stop-opacity:1;"
         offset="0"
         id="stop4568-2" />
      <stop
         style="stop-color:#000000;stop-opacity:1;"
         offset="1"
         id="stop4570-9" />
    </linearGradient>
    <linearGradient
       inkscape:collect="always"
       xlink:href="#linearGradient4566-6"
       id="linearGradient4626"
       x1="1081.5195"
       y1="-148.49893"
       x2="30.393991"
       y2="750.65668"
       gradientUnits="userSpaceOnUse"
       gradientTransform="matrix(1.0606636,0,0,1.0606636,-18.565081,49.620767)" />
    <linearGradient
       inkscape:collect="always"
       xlink:href="#linearGradient4566-4"
       id="linearGradient4582-3"
       x1="0"
       y1="351.7355"
       x2="182.36395"
       y2="351.7355"
       gradientUnits="userSpaceOnUse"
       gradientTransform="matrix(1.0606636,0,0,1.0606636,-18.565081,49.620767)" />
    <linearGradient
       id="linearGradient4566-4">
      <stop
         style="stop-color:#931be4;stop-opacity:1;"
         offset="0"
         id="stop4568-9" />
      <stop
         style="stop-color:#000000;stop-opacity:1;"
         offset="1"
         id="stop4570-5" />
    </linearGradient>
    <linearGradient
       y2="361.33569"
       x2="233.56493"
       y1="351.7355"
       x1="0"
       gradientTransform="matrix(-1.0606636,0,0,1.0606636,1081.0279,50.340874)"
       gradientUnits="userSpaceOnUse"
       id="linearGradient4643"
       xlink:href="#linearGradient4566-4"
       inkscape:collect="always" />
    <filter
       color-interpolation-filters="sRGB"
       inkscape:collect="always"
       id="filter3897"
       x="-0.1020908"
       width="1.2041816"
       y="-0.095036633"
       height="1.1900733">
      <feGaussianBlur
         inkscape:collect="always"
         stdDeviation="2.4550603"
         id="feGaussianBlur3899" />
    </filter>
    <filter
       color-interpolation-filters="sRGB"
       inkscape:collect="always"
       id="filter3947">
      <feGaussianBlur
         inkscape:collect="always"
         stdDeviation="1.4988856"
         id="feGaussianBlur3949" />
    </filter>
    <filter
       color-interpolation-filters="sRGB"
       inkscape:collect="always"
       id="filter3969"
       x="-0.083817542"
       width="1.1676351"
       y="-0.22323526"
       height="1.4464705">
      <feGaussianBlur
         inkscape:collect="always"
         stdDeviation="12.704089"
         id="feGaussianBlur3971" />
    </filter>
  </defs>
  <sodipodi:namedview
     id="base"
     pagecolor="#ffffff"
     bordercolor="#666666"
     borderopacity="1.0"
     inkscape:pageopacity="0.0"
     inkscape:pageshadow="2"
     inkscape:zoom="0.41519441"
     inkscape:cx="256.54975"
     inkscape:cy="129.91475"
     inkscape:current-layer="layer1"
     inkscape:document-units="px"
     showgrid="false"
     inkscape:window-width="1278"
     inkscape:window-height="727"
     inkscape:window-x="0"
     inkscape:window-y="25"
     inkscape:window-maximized="1"
     fit-margin-bottom="22"
     fit-margin-right="22"
     fit-margin-top="22"
     fit-margin-left="22" />
  <metadata
     id="metadata2990">
    <rdf:RDF>
      <cc:Work
         rdf:about="">
        <dc:format>image/svg+xml</dc:format>
        <dc:type
           rdf:resource="http://purl.org/dc/dcmitype/StillImage" />
        <dc:title></dc:title>
      </cc:Work>
    </rdf:RDF>
  </metadata>
  <g
     id="layer1"
     inkscape:label="Layer 1"
     inkscape:groupmode="layer"
     transform="translate(-5.3611275,-182.51488)">
    <path
       style="fill:#f2f2f2;fill-opacity:1;stroke:none"
       d="m 214.69204,254.80697 c 1.16455,14.82816 -2.8014,28.64685 -10.15502,39.00169 -7.35363,10.35486 -18.09483,17.24588 -30.48075,18.21868 -12.38583,0.97281 -24.07123,-4.15678 -32.95128,-13.23661 -8.88005,-9.07983 -14.95476,-22.1099 -16.11941,-36.93806 -1.16465,-14.82816 2.80139,-28.64685 10.15493,-39.00169 7.35362,-10.35487 18.09491,-17.24588 30.48074,-18.21868 12.38592,-0.97281 24.07131,4.15678 32.95137,13.2366 8.88005,9.07983 14.95477,22.10991 16.11942,36.93807 z"
       id="path3804"
       inkscape:connector-curvature="0"
       sodipodi:nodetypes="sssssssss" />
    <path
       style="fill:#f2f2f2;fill-opacity:1;stroke:none"
       d="m 140.17388,278.3408 c -3.12311,13.82032 -10.62981,25.27484 -20.24157,32.62211 -9.61186,7.34728 -21.328982,10.58728 -32.872962,7.97852 -11.54406,-2.60877 -20.72935,-10.57235 -26.24773,-21.33881 -5.51846,-10.76647 -7.37011,-24.33584 -4.24699,-38.15614 3.12321,-13.82031 10.62989,-25.27485 20.24166,-32.62212 9.61186,-7.34727 21.32897,-10.58728 32.872962,-7.9785 11.54407,2.60875 20.72926,10.57233 26.24773,21.3388 5.51846,10.76647 7.37011,24.33582 4.2469,38.15614 z"
       id="path3804-3"
       inkscape:connector-curvature="0"
       sodipodi:nodetypes="sssssssss" />
    <path
       style="fill:#000000;fill-opacity:1;stroke:none"
       d="m 183.74207,270.21046 c -0.98131,3.62771 -3.33973,6.63443 -6.35961,8.56302 -3.01988,1.92861 -6.70122,2.77909 -10.32816,2.09431 -3.62694,-0.68479 -6.51276,-2.77517 -8.24656,-5.60127 -1.7338,-2.8261 -2.31558,-6.38794 -1.33429,-10.01567 0.98121,-3.62771 3.33963,-6.63443 6.35952,-8.56303 3.01987,-1.92859 6.70121,-2.77908 10.32815,-2.09429 3.62695,0.68478 6.51284,2.77515 8.24665,5.60126 1.7338,2.82611 2.3155,6.38795 1.3343,10.01567 z"
       id="path3804-3-6"
       inkscape:connector-curvature="0"
       sodipodi:nodetypes="sssssssss" />
    <path
       style="fill:#000000;fill-opacity:1;stroke:none"
       d="m 117.9653,265.54819 c -1.48199,5.47896 -5.04395,10.02003 -9.60496,12.93279 -4.56092,2.91277 -10.120792,4.19726 -15.598572,3.16303 -5.47787,-1.03423 -9.83634,-4.19132 -12.45493,-8.4596 -2.61858,-4.2683 -3.49727,-9.64778 -2.01528,-15.12675 1.48198,-5.47896 5.04404,-10.02002 9.60496,-12.93279 4.56101,-2.91278 10.12087,-4.19726 15.598652,-3.16304 5.47778,1.03424 9.83635,4.19134 12.45493,8.45963 2.61858,4.26828 3.49718,9.64776 2.0152,15.12673 z"
       id="path3804-3-6-2"
       inkscape:connector-curvature="0"
       sodipodi:nodetypes="sssssssss" />
    <path
       style="fill:#ffddff;fill-opacity:1;stroke:none"
       d="M 241.00528,397.33306 C 76.473818,433.33865 -29.770742,263.47338 60.211998,424.98795 150.19466,586.50251 241.00528,397.33306 241.00528,397.33306 z"
       id="path3861"
       inkscape:connector-curvature="0"
       sodipodi:nodetypes="csc" />
    <path
       style="fill:#000000;fill-opacity:1;stroke:none"
       d="M 234.05287,398.93443 C 155.74628,410.50924 89.565558,382.91582 37.616388,355.67716 c 18.26985,38.16542 19.47357,36.15916 38.6195,68.41314 41.399112,69.74262 78.763082,64.98679 108.013942,41.50583 29.25085,-23.48095 49.80304,-66.6617 49.80304,-66.6617 z"
       id="path3861-8"
       inkscape:connector-curvature="0"
       sodipodi:nodetypes="ccssc" />
    <path
       style="fill:#ff0000;fill-opacity:1;stroke:none"
       d="m 97.420758,384.02826 c 0,0 14.487332,5.81139 29.726272,9.40557 -9.13492,23.85653 -19.17981,12.41956 -23.05131,6.40967 -5.353482,-9.02259 -6.674962,-15.81524 -6.674962,-15.81524 z"
       id="path4023-9"
       inkscape:connector-curvature="0"
       sodipodi:nodetypes="cccc"
       inkscape:transform-center-x="6.1989162"
       inkscape:transform-center-y="11.745422" />
    <path
       style="fill:#111111;fill-opacity:1;stroke:none"
       d="m 81.236908,432.71108 c 0,0 77.353882,-18.45943 124.820982,7.91118 -9.22973,14.50385 -31.20529,29.88671 -31.20529,29.88671 0,0 -32.46279,20.99152 -60.65241,-1.75804 C 89.148118,448.53345 81.236908,432.71108 81.236908,432.71108 z"
       id="path4023"
       inkscape:connector-curvature="0"
       sodipodi:nodetypes="cccsc" />
    <path
       style="fill:#ffffff;fill-opacity:1;stroke:none"
       d="m 95.139138,251.46941 c -0.26079,0.96428 -0.88774,1.76347 -1.69043,2.27611 -0.80269,0.51262 -1.78121,0.73869 -2.74521,0.55667 -0.96409,-0.18202 -1.73121,-0.73765 -2.192,-1.48884 -0.46091,-0.75119 -0.61549,-1.69795 -0.3547,-2.66223 0.26087,-0.96426 0.88773,-1.76346 1.69041,-2.2761 0.8027,-0.51263 1.78122,-0.73869 2.74531,-0.55666 0.964,0.182 1.73111,0.73765 2.192,1.48884 0.46081,0.75119 0.61549,1.69795 0.35462,2.66221 z"
       id="path3804-3-6-2-8"
       inkscape:connector-curvature="0"
       sodipodi:nodetypes="sssssssss"
       inkscape:transform-center-x="-2.6044817"
       inkscape:transform-center-y="11.405817" />
    <path
       style="fill:#ffffff;fill-opacity:1;stroke:none"
       d="m 168.67949,259.32881 c -0.17681,0.65362 -0.60168,1.19535 -1.14583,1.54283 -0.54406,0.34748 -1.2074,0.50071 -1.86088,0.37734 -0.65348,-0.12338 -1.17343,-0.50001 -1.48583,-1.0092 -0.31231,-0.5092 -0.41716,-1.15095 -0.24036,-1.80457 0.17682,-0.65363 0.60169,-1.19536 1.14584,-1.54284 0.54406,-0.34748 1.20739,-0.50073 1.86088,-0.37734 0.65348,0.12338 1.17343,0.50002 1.48583,1.00921 0.31231,0.50918 0.41716,1.15094 0.24035,1.80457 z"
       id="path3804-3-6-2-8-3"
       inkscape:connector-curvature="0"
       sodipodi:nodetypes="sssssssss"
       inkscape:transform-center-x="-1.765433"
       inkscape:transform-center-y="7.7313597" />
    <path
       style="fill:#000000;fill-opacity:1;stroke:none"
       d="m 160.72947,362.20495 c -0.25944,0.95922 -0.88308,1.75425 -1.68155,2.2642 -0.79848,0.50996 -1.77189,0.73484 -2.73088,0.55378 -0.95907,-0.18107 -1.72215,-0.7338 -2.18053,-1.48107 -0.45848,-0.74727 -0.61234,-1.68907 -0.35282,-2.6483 0.25944,-0.95924 0.88308,-1.75426 1.68155,-2.26421 0.79848,-0.50996 1.7719,-0.73483 2.73097,-0.55377 0.95898,0.18107 1.72206,0.73379 2.18044,1.48106 0.45848,0.74727 0.61235,1.68908 0.35282,2.64831 z"
       id="path3804-3-6-1"
       inkscape:connector-curvature="0"
       sodipodi:nodetypes="sssssssss" />
    <path
       style="fill:#000000;fill-opacity:1;stroke:none"
       d="m 172.254,361.46853 c -0.35523,1.31313 -1.20891,2.40147 -2.30206,3.09956 -1.09304,0.6981 -2.42554,1.00595 -3.73842,0.75808 -1.31287,-0.24787 -2.35743,-1.00452 -2.98502,-2.02749 -0.62758,-1.02298 -0.83818,-2.31225 -0.48303,-3.62538 0.35524,-1.31312 1.20892,-2.40146 2.30197,-3.09955 1.09314,-0.6981 2.42564,-1.00595 3.73851,-0.75808 1.31288,0.24787 2.35744,1.00451 2.98502,2.02749 0.62758,1.02296 0.83818,2.31225 0.48303,3.62537 z"
       id="path3804-3-6-1-3"
       inkscape:connector-curvature="0"
       sodipodi:nodetypes="sssssssss" />
    <path
       style="fill:#ffffff;fill-opacity:1;stroke:none"
       d="m 134.75821,395.80304 -0.34019,31.61541 22.29719,0.3982 6.02265,-16.25862 3.31211,30.47609 23.40001,1.14464 c 0,0 1.05666,-18.48376 1.46603,-40.47363 -22.87019,1.19164 -56.1578,-6.90209 -56.1578,-6.90209 z"
       id="path3881"
       inkscape:connector-curvature="0"
       sodipodi:nodetypes="cccccccc" />
  </g>
</svg>
